<?xml version="1.0" encoding="UTF-8" standalone="no"?>
<!DOCTYPE svg PUBLIC "-//W3C//DTD SVG 1.1//EN" "http://www.w3.org/Graphics/SVG/1.1/DTD/svg11.dtd">
<svg width="100%" height="100%" viewBox="0 0 512 512" version="1.1" xmlns="http://www.w3.org/2000/svg" xmlns:xlink="http://www.w3.org/1999/xlink" xml:space="preserve" xmlns:serif="http://www.serif.com/" style="fill-rule:evenodd;clip-rule:evenodd;stroke-linejoin:round;stroke-miterlimit:2;">
    <g id="Circle" transform="matrix(1.20578,0,0,1.20578,-51.4489,-53.5523)">
        <path id="Circle1" serif:id="Circle" d="M409.058,111.819C444.28,149.614 465.843,200.309 465.843,256C465.843,372.778 371.034,467.587 254.256,467.587C198.564,467.587 147.869,446.024 110.075,410.803L125.044,395.834C159.005,427.233 204.406,446.428 254.256,446.428C359.356,446.428 444.684,361.1 444.684,256C444.684,206.151 425.488,160.75 394.089,126.788L409.058,111.819ZM97.223,397.751C63.319,360.216 42.668,310.5 42.668,256C42.668,139.222 137.477,44.413 254.256,44.413C308.756,44.413 358.471,65.063 396.006,98.968L381.026,113.948C347.34,83.863 302.917,65.572 254.256,65.572C149.155,65.572 63.827,150.9 63.827,256C63.827,304.661 82.119,349.084 112.203,382.77L97.223,397.751Z" style="fill:rgb(13,84,115);"/>
        <g transform="matrix(0.738461,0,0,0.738461,24.206,59.3173)">
            <path d="M262.243,213.188L166.861,213.188C146.176,213.188 129.382,229.981 129.382,250.666L129.382,302.038C129.382,322.723 146.176,339.516 166.861,339.516C166.861,339.516 169.294,339.516 169.294,339.516C169.294,339.516 162.103,366.671 162.103,366.671C160.843,371.43 162.672,376.471 166.69,379.315C170.708,382.159 176.071,382.207 180.14,379.436L238.761,339.516C238.761,339.516 317.536,339.516 317.536,339.516C338.221,339.516 355.015,322.723 355.015,302.038L355.015,284.57L331.43,284.57L331.43,302.038C331.43,309.706 325.205,315.932 317.536,315.932L235.127,315.932C232.759,315.932 230.446,316.644 228.489,317.977L192.994,342.149C192.994,342.149 196.014,330.742 196.014,330.742C196.951,327.204 196.192,323.432 193.96,320.531C191.727,317.631 188.275,315.932 184.615,315.932L166.861,315.932C159.192,315.932 152.967,309.706 152.967,302.038C152.967,302.038 152.967,250.666 152.967,250.666C152.967,242.998 159.192,236.772 166.861,236.772L262.243,236.772L262.243,213.188Z" style="fill:rgb(13,84,115);"/>
        </g>
        <g transform="matrix(-0.738461,0,0,0.738461,485.753,13.5426)">
            <path d="M355.015,250.666L355.015,302.038C355.015,322.723 338.221,339.516 317.536,339.516L238.761,339.516C238.761,339.516 180.14,379.436 180.14,379.436C176.071,382.207 170.708,382.159 166.69,379.315C162.672,376.471 160.843,371.43 162.103,366.671L169.294,339.516C169.294,339.516 166.861,339.516 166.861,339.516C146.176,339.516 129.382,322.723 129.382,302.038L129.382,250.666C129.382,229.981 146.176,213.188 166.861,213.188C166.861,213.188 317.536,213.188 317.536,213.188C338.221,213.188 355.015,229.981 355.015,250.666ZM331.43,250.666C331.43,242.998 325.205,236.772 317.536,236.772L166.861,236.772C159.192,236.772 152.967,242.998 152.967,250.666C152.967,250.666 152.967,302.038 152.967,302.038C152.967,309.706 159.192,315.932 166.861,315.932C166.861,315.932 184.615,315.932 184.615,315.932C188.275,315.932 191.727,317.631 193.96,320.531C196.192,323.432 196.951,327.204 196.014,330.742L192.994,342.149C192.994,342.149 228.489,317.977 228.489,317.977C230.446,316.644 232.759,315.932 235.127,315.932L317.536,315.932C325.205,315.932 331.43,309.706 331.43,302.038L331.43,250.666Z" style="fill:rgb(13,84,115);"/>
        </g>
    </g>
</svg>
