<?xml version="1.0" encoding="UTF-8" standalone="no"?>
<!DOCTYPE svg PUBLIC "-//W3C//DTD SVG 1.1//EN" "http://www.w3.org/Graphics/SVG/1.1/DTD/svg11.dtd">
<svg width="100%" height="100%" viewBox="0 0 511 511" version="1.1" xmlns="http://www.w3.org/2000/svg" xmlns:xlink="http://www.w3.org/1999/xlink" xml:space="preserve" xmlns:serif="http://www.serif.com/" style="fill-rule:evenodd;clip-rule:evenodd;stroke-linejoin:round;stroke-miterlimit:2;">
    <g transform="matrix(1,0,0,1,0.00067896,-7.14e-06)">
        <g id="Circle" transform="matrix(1.20578,0,0,1.20578,-51.4489,-53.5523)">
            <path id="Circle1" serif:id="Circle" d="M409.058,111.819C444.28,149.614 465.843,200.309 465.843,256C465.843,372.778 371.034,467.587 254.256,467.587C198.564,467.587 147.869,446.024 110.075,410.803L125.044,395.834C159.005,427.233 204.406,446.428 254.256,446.428C359.356,446.428 444.684,361.1 444.684,256C444.684,206.151 425.488,160.75 394.089,126.788L409.058,111.819ZM97.223,397.751C63.319,360.216 42.668,310.5 42.668,256C42.668,139.222 137.477,44.413 254.256,44.413C308.756,44.413 358.471,65.063 396.006,98.968L381.026,113.948C347.34,83.863 302.917,65.572 254.256,65.572C149.155,65.572 63.827,150.9 63.827,256C63.827,304.661 82.119,349.084 112.203,382.77L97.223,397.751Z" style="fill:rgb(0,46,92);"/>
            <g transform="matrix(0.925754,0,0,0.896405,-14.3603,29.6956)">
                <path d="M243.471,243.459C236.949,242.505 230.324,242.505 223.803,243.459L218.941,256.942C214.435,258.175 210.101,259.97 206.043,262.285L193.071,256.189C187.785,260.125 183.1,264.81 179.164,270.096L185.26,283.068C182.946,287.126 181.151,291.459 179.918,295.966L166.434,300.828C165.48,307.349 165.48,313.974 166.434,320.495L179.918,325.357C181.151,329.864 182.946,334.197 185.26,338.255L179.164,351.227C183.1,356.513 187.785,361.198 193.071,365.134L206.043,359.038C210.101,361.353 214.435,363.148 218.941,364.38L223.803,377.864C230.324,378.818 236.949,378.818 243.471,377.864L248.333,364.38C252.839,363.148 257.172,361.353 261.23,359.038L274.203,365.134C279.488,361.198 284.173,356.513 288.11,351.227L282.013,338.255C284.328,334.197 286.123,329.864 287.356,325.357L300.839,320.495C301.793,313.974 301.793,307.349 300.839,300.828L287.356,295.966C286.123,291.459 284.328,287.126 282.013,283.068L288.11,270.096C284.173,264.81 279.488,260.125 274.203,256.189L261.23,262.285C257.172,259.97 252.839,258.175 248.333,256.942L243.471,243.459ZM233.637,275.344C253.129,275.344 268.954,291.169 268.954,310.661C268.954,330.154 253.129,345.979 233.637,345.979C214.145,345.979 198.319,330.154 198.319,310.661C198.319,291.169 214.145,275.344 233.637,275.344Z" style="fill:rgb(0,46,92);"/>
            </g>
            <g transform="matrix(1.07781,0.37609,-0.388403,1.04364,161.706,-195.807)">
                <path d="M245.051,243.709C237.496,242.421 229.778,242.421 222.223,243.709L220.211,256.611C214.824,257.949 209.667,260.085 204.911,262.948L194.366,255.248C188.113,259.679 182.655,265.137 178.223,271.39L185.924,281.936C183.061,286.691 180.925,291.848 179.587,297.235L166.685,299.247C165.397,306.802 165.397,314.521 166.685,322.076L179.587,324.088C180.925,329.475 183.061,334.631 185.924,339.387L178.223,349.933C182.655,356.186 188.113,361.643 194.366,366.075L204.911,358.374C209.667,361.237 214.824,363.373 220.211,364.712L222.223,377.613C229.778,378.901 237.496,378.901 245.051,377.613L247.063,364.712C252.45,363.373 257.607,361.237 262.362,358.374L272.908,366.075C279.161,361.643 284.619,356.186 289.05,349.933L281.35,339.387C284.213,334.631 286.349,329.475 287.687,324.088L300.589,322.076C301.877,314.521 301.877,306.802 300.589,299.247L287.687,297.235C286.349,291.848 284.213,286.691 281.35,281.936L289.05,271.39C284.619,265.137 279.161,259.679 272.908,255.248L262.362,262.948C257.607,260.085 252.45,257.949 247.063,256.611L245.051,243.709ZM233.637,275.344C253.129,275.344 268.954,291.169 268.954,310.661C268.954,330.154 253.129,345.979 233.637,345.979C214.145,345.979 198.319,330.154 198.319,310.661C198.319,291.169 214.145,275.344 233.637,275.344Z" style="fill:rgb(0,46,92);"/>
            </g>
        </g>
    </g>
</svg>
