<?xml version="1.0" encoding="UTF-8" standalone="no"?>
<!DOCTYPE svg PUBLIC "-//W3C//DTD SVG 1.1//EN" "http://www.w3.org/Graphics/SVG/1.1/DTD/svg11.dtd">
<svg width="100%" height="100%" viewBox="0 0 1024 260" version="1.1" xmlns="http://www.w3.org/2000/svg" xmlns:xlink="http://www.w3.org/1999/xlink" xml:space="preserve" xmlns:serif="http://www.serif.com/" style="fill-rule:evenodd;clip-rule:evenodd;stroke-linejoin:round;stroke-miterlimit:2;">
    <g id="levistin-logo" transform="matrix(4.16667,0,0,4.16667,0,-490.658)">
        <path d="M12.48,179.844C7.953,179.738 4.738,178.762 2.844,176.918C0.949,175.078 0,172.207 0,168.309L0,119.023L7.348,117.758L7.348,167.125C7.348,168.336 7.449,169.336 7.66,170.125C7.871,170.918 8.215,171.547 8.688,172.023C9.164,172.496 9.793,172.852 10.586,173.09C11.375,173.324 12.348,173.523 13.508,173.68L12.48,179.844Z" style="fill:rgb(0,46,93);fill-rule:nonzero;"/>
        <path d="M19.43,158.594C19.43,154.961 19.957,151.789 21.012,149.078C22.062,146.363 23.461,144.113 25.195,142.324C26.934,140.531 28.938,139.191 31.199,138.293C33.465,137.398 35.781,136.953 38.152,136.953C43.68,136.953 47.918,138.676 50.867,142.125C53.816,145.574 55.293,150.828 55.293,157.883L55.293,159.109C55.293,159.609 55.266,160.07 55.211,160.488L27.094,160.488C27.41,164.754 28.645,167.992 30.805,170.207C32.965,172.418 36.336,173.523 40.914,173.523C43.496,173.523 45.668,173.301 47.434,172.852C49.195,172.402 50.527,171.969 51.422,171.547L52.449,177.711C51.551,178.184 49.984,178.684 47.746,179.211C45.512,179.738 42.969,180 40.125,180C36.543,180 33.449,179.461 30.844,178.379C28.238,177.301 26.094,175.812 24.406,173.918C22.723,172.023 21.473,169.77 20.656,167.164C19.84,164.559 19.43,161.703 19.43,158.594ZM47.629,154.566C47.684,151.25 46.852,148.523 45.141,146.391C43.43,144.258 41.074,143.191 38.07,143.191C36.387,143.191 34.898,143.52 33.609,144.18C32.32,144.836 31.227,145.691 30.332,146.746C29.438,147.801 28.738,149.012 28.238,150.379C27.738,151.75 27.41,153.145 27.25,154.566L47.629,154.566Z" style="fill:rgb(0,46,93);fill-rule:nonzero;"/>
        <path d="M97.945,137.98C95.891,145.668 93.48,153.039 90.719,160.094C87.953,167.152 85.281,173.469 82.699,179.051L76.066,179.051C73.484,173.469 70.812,167.152 68.047,160.094C65.281,153.039 62.875,145.668 60.82,137.98L68.719,137.98C69.352,140.559 70.102,143.309 70.969,146.234C71.84,149.156 72.762,152.051 73.734,154.922C74.707,157.793 75.695,160.57 76.695,163.254C77.695,165.941 78.645,168.336 79.539,170.441C80.434,168.336 81.383,165.941 82.383,163.254C83.383,160.57 84.371,157.793 85.348,154.922C86.32,152.051 87.242,149.156 88.109,146.234C88.98,143.309 89.73,140.559 90.363,137.98L97.945,137.98Z" style="fill:rgb(0,46,93);fill-rule:nonzero;"/>
        <path d="M112.871,179.051L105.527,179.051L105.527,137.98L112.871,137.98L112.871,179.051ZM109.16,130.555C107.844,130.555 106.727,130.121 105.805,129.25C104.883,128.383 104.422,127.211 104.422,125.734C104.422,124.262 104.883,123.09 105.805,122.223C106.727,121.352 107.844,120.918 109.16,120.918C110.477,120.918 111.598,121.352 112.516,122.223C113.438,123.09 113.898,124.262 113.898,125.734C113.898,127.211 113.438,128.383 112.516,129.25C111.598,130.121 110.477,130.555 109.16,130.555Z" style="fill:rgb(0,46,93);fill-rule:nonzero;"/>
        <path d="M135.066,173.762C138.07,173.762 140.293,173.363 141.742,172.574C143.191,171.785 143.914,170.523 143.914,168.785C143.914,166.992 143.203,165.57 141.781,164.52C140.359,163.465 138.016,162.281 134.754,160.965C133.172,160.332 131.66,159.688 130.211,159.027C128.761,158.371 127.512,157.594 126.457,156.699C125.406,155.805 124.562,154.723 123.93,153.461C123.301,152.195 122.984,150.645 122.984,148.801C122.984,145.168 124.324,142.285 127.012,140.152C129.695,138.02 133.355,136.953 137.992,136.953C139.148,136.953 140.309,137.02 141.465,137.148C142.625,137.281 143.703,137.438 144.703,137.625C145.707,137.809 146.586,138.004 147.352,138.215C148.113,138.426 148.707,138.609 149.129,138.77L147.785,145.086C146.996,144.668 145.758,144.23 144.074,143.785C142.387,143.336 140.359,143.113 137.992,143.113C135.938,143.113 134.148,143.52 132.621,144.336C131.094,145.152 130.328,146.43 130.328,148.168C130.328,149.062 130.5,149.852 130.843,150.539C131.184,151.223 131.711,151.84 132.422,152.395C133.133,152.945 134.016,153.461 135.066,153.934C136.121,154.406 137.387,154.91 138.859,155.434C140.809,156.172 142.547,156.895 144.074,157.605C145.602,158.316 146.902,159.148 147.984,160.094C149.062,161.043 149.891,162.188 150.473,163.531C151.051,164.875 151.34,166.52 151.34,168.469C151.34,172.258 149.93,175.129 147.113,177.078C144.297,179.027 140.281,180 135.066,180C131.434,180 128.59,179.695 126.539,179.09C124.484,178.484 123.09,178.023 122.352,177.711L123.695,171.391C124.535,171.707 125.879,172.18 127.723,172.812C129.565,173.445 132.016,173.762 135.066,173.762Z" style="fill:rgb(0,46,93);fill-rule:nonzero;"/>
        <path d="M167.609,137.98L183.172,137.98L183.172,144.141L167.609,144.141L167.609,163.098C167.609,165.148 167.77,166.848 168.086,168.191C168.402,169.535 168.875,170.586 169.508,171.352C170.137,172.113 170.93,172.652 171.875,172.969C172.824,173.285 173.93,173.445 175.195,173.445C177.406,173.445 179.184,173.195 180.527,172.695C181.867,172.195 182.805,171.84 183.328,171.629L184.75,177.711C184.016,178.078 182.723,178.539 180.883,179.09C179.039,179.645 176.93,179.922 174.562,179.922C171.77,179.922 169.469,179.566 167.652,178.855C165.832,178.145 164.371,177.078 163.266,175.656C162.16,174.234 161.383,172.484 160.938,170.402C160.488,168.324 160.266,165.914 160.266,163.176L160.266,126.527L167.609,125.262L167.609,137.98Z" style="fill:rgb(0,46,93);fill-rule:nonzero;"/>
        <path d="M199.836,179.051L192.492,179.051L192.492,137.98L199.836,137.98L199.836,179.051ZM196.125,130.555C194.809,130.555 193.691,130.121 192.77,129.25C191.848,128.383 191.387,127.211 191.387,125.734C191.387,124.262 191.848,123.09 192.77,122.223C193.691,121.352 194.809,120.918 196.125,120.918C197.441,120.918 198.562,121.352 199.48,122.223C200.402,123.09 200.863,124.262 200.863,125.734C200.863,127.211 200.402,128.383 199.48,129.25C198.562,130.121 197.441,130.555 196.125,130.555Z" style="fill:rgb(0,46,93);fill-rule:nonzero;"/>
        <path d="M212.477,139.164C214.16,138.742 216.398,138.293 219.191,137.82C221.98,137.348 225.191,137.109 228.828,137.109C232.09,137.109 234.805,137.57 236.961,138.492C239.121,139.414 240.844,140.703 242.137,142.363C243.426,144.02 244.336,146.008 244.859,148.324C245.387,150.645 245.652,153.195 245.652,155.988L245.652,179.051L238.305,179.051L238.305,157.566C238.305,155.039 238.133,152.883 237.793,151.09C237.449,149.301 236.883,147.852 236.094,146.746C235.305,145.641 234.25,144.836 232.934,144.336C231.617,143.836 229.984,143.586 228.035,143.586C227.246,143.586 226.43,143.613 225.586,143.664C224.746,143.719 223.941,143.785 223.18,143.863C222.414,143.941 221.73,144.035 221.125,144.141C220.52,144.246 220.086,144.324 219.82,144.375L219.82,179.051L212.477,179.051L212.477,139.164Z" style="fill:rgb(0,46,93);fill-rule:nonzero;"/>
    </g>
</svg>
