<?xml version="1.0" encoding="UTF-8" standalone="no"?>
<!DOCTYPE svg PUBLIC "-//W3C//DTD SVG 1.1//EN" "http://www.w3.org/Graphics/SVG/1.1/DTD/svg11.dtd">
<svg width="100%" height="100%" viewBox="0 0 512 512" version="1.1" xmlns="http://www.w3.org/2000/svg" xmlns:xlink="http://www.w3.org/1999/xlink" xml:space="preserve" xmlns:serif="http://www.serif.com/" style="fill-rule:evenodd;clip-rule:evenodd;stroke-linejoin:round;stroke-miterlimit:2;">
    <g transform="matrix(1.58718,-6.19964e-17,0,1.02528,-186.312,-42.6937)">
        <path d="M408.537,118.624C408.537,115.659 407.258,113.059 405.411,112.271L279.81,58.633C279.069,58.316 278.287,58.316 277.546,58.633L151.945,112.271C150.098,113.059 148.82,115.659 148.82,118.624L148.82,327.309C148.82,365.371 160.954,400.981 181.247,422.472C218.426,461.845 276.274,523.109 276.274,523.109C277.723,524.643 279.633,524.643 281.082,523.109C281.082,523.109 338.931,461.845 376.109,422.472C396.402,400.981 408.537,365.371 408.537,327.309C408.537,249.109 408.537,118.624 408.537,118.624ZM400.022,123.642L400.022,327.309C400.022,361.02 389.275,392.559 371.302,411.594C338.624,446.201 289.977,497.719 278.678,509.685C267.379,497.719 218.732,446.201 186.054,411.594C168.081,392.559 157.334,361.02 157.334,327.309L157.334,123.642C157.334,123.642 278.678,71.822 278.678,71.822L400.022,123.642Z" style="fill:white;"/>
    </g>
    <g transform="matrix(1.25586,0,0,1.25586,-85.584,-66.8858)">
        <path d="M215.951,297.966L178.667,260.682C177.789,259.803 176.364,259.803 175.485,260.682L161.823,274.344C160.945,275.222 160.945,276.647 161.823,277.526C161.823,277.526 208.922,324.624 213.61,329.313C214.074,329.777 214.686,330.06 215.334,330.116C216.174,330.529 217.219,330.386 217.918,329.687L382.161,165.444C383.04,164.565 383.04,163.141 382.161,162.262L368.499,148.6C367.62,147.721 366.196,147.721 365.317,148.6L215.951,297.966ZM215.613,325.628L214.736,326.505L217.387,326.505L215.951,329.971C215.951,329.971 212.415,328.075 214.36,326.131C214.682,325.808 215.12,325.627 215.576,325.627L215.613,325.628ZM217.18,329.617L217.166,329.626L217.18,329.617ZM217.334,329.5L217.238,329.575C217.27,329.552 217.302,329.527 217.334,329.5ZM217.431,329.417L217.345,329.491L217.391,329.453L217.431,329.417ZM217.542,329.313L217.449,329.401L217.466,329.385L217.542,329.313ZM215.951,325.29L166.596,275.935C166.596,275.935 177.076,265.455 177.076,265.455C177.076,265.455 213.986,302.364 213.986,302.364C213.986,302.364 213.986,302.364 213.986,302.364C215.071,303.45 216.831,303.45 217.917,302.364C217.917,302.364 366.908,153.373 366.908,153.373C366.908,153.373 377.388,163.853 377.388,163.853L215.951,325.29Z" style="fill:white;"/>
    </g>
</svg>
