<?xml version="1.0" encoding="UTF-8" standalone="no"?>
<!DOCTYPE svg PUBLIC "-//W3C//DTD SVG 1.1//EN" "http://www.w3.org/Graphics/SVG/1.1/DTD/svg11.dtd">
<svg width="100%" height="100%" viewBox="0 0 501 158" version="1.1" xmlns="http://www.w3.org/2000/svg" xmlns:xlink="http://www.w3.org/1999/xlink" xml:space="preserve" xmlns:serif="http://www.serif.com/" style="fill-rule:evenodd;clip-rule:evenodd;stroke-linejoin:round;stroke-miterlimit:2;">
    <g transform="matrix(1,0,0,1,0.0407,-16.7985)">
        <path d="M73.55,174.23C71.867,173.899 70.163,173.691 68.45,173.61C57.01,172.219 46.033,168.249 36.35,162C22.129,153.004 11.205,139.631 5.23,123.9C2.705,117.417 1.089,110.616 0.43,103.69C-1.321,87.827 1.839,71.802 9.48,57.79C17.973,41.795 31.836,29.292 48.62,22.49C55.938,19.43 63.707,17.585 71.62,17.03C90.62,15.66 108.06,20.35 123.55,31.63C138.519,42.356 149.165,58.094 153.55,75.98C155.228,82.56 156.051,89.329 156,96.12L156,174.23L73.55,174.23ZM79.26,95.47L79.26,150.33C79.26,151.27 79.4,151.63 80.44,151.6C83.79,151.53 87.15,151.6 90.51,151.6C92.18,151.6 91.94,151.78 91.94,150.21L91.94,108.31C91.94,107.37 92.18,107.15 93.09,107.16L119.44,107.16C120.5,107.16 120.78,107.4 120.78,108.49L120.78,150.49C120.78,151.35 120.98,151.63 121.87,151.62C125.37,151.57 128.87,151.57 132.38,151.62C133.27,151.62 133.49,151.39 133.49,150.51L133.49,96.32C133.534,93.378 133.357,90.436 132.96,87.52C129.228,61.164 107.17,40.947 80.59,39.52C79.59,39.45 79.33,39.78 79.34,40.78C79.307,58.993 79.28,77.223 79.26,95.47ZM72.8,46.15L72.8,40.56C72.8,39.89 72.67,39.56 71.94,39.73C70.35,40.01 68.73,40.18 67.15,40.52C52.439,43.403 39.557,52.247 31.58,64.94C23.437,77.093 20.58,92.051 23.67,106.35C27.74,126.14 39.36,139.92 57.86,147.72C62.267,149.521 66.906,150.689 71.64,151.19C72.18,151.26 72.83,151.51 72.81,150.46L72.81,139.17C72.81,138.59 72.67,138.34 72.03,138.25C62.067,136.94 52.921,132.026 46.33,124.44C36.94,113.74 33.48,101.19 36.14,87.14C38.48,74.81 45.14,65.35 55.7,58.66C60.644,55.533 66.204,53.507 72,52.72C72.69,52.61 72.82,52.35 72.81,51.72C72.77,49.87 72.8,48 72.8,46.15Z" style="fill:rgb(0,46,92);fill-rule:nonzero;"/>
        <path d="M92,54.67C106.485,59.804 117.175,72.304 120,87.41C120.345,89.423 120.585,91.452 120.72,93.49C120.81,94.49 120.14,94.24 119.64,94.24L92.8,94.24C92.17,94.24 91.91,94.13 91.91,93.4L91.91,55.22C91.93,55.09 92,54.94 92,54.67Z" style="fill:rgb(0,46,92);fill-rule:nonzero;"/>
        <path d="M199.92,154L199.86,154C195.715,154 192.297,157.395 192.27,161.54C192.3,165.721 195.749,169.145 199.93,169.145C204.132,169.145 207.59,165.687 207.59,161.485L207.59,161.43C207.498,157.297 204.054,153.956 199.92,153.99M199.92,167.59C199.828,167.594 199.736,167.596 199.645,167.596C196.293,167.596 193.535,164.838 193.535,161.486C193.535,158.134 196.293,155.376 199.645,155.376C199.716,155.376 199.788,155.377 199.86,155.38L199.92,155.38C200.002,155.377 200.085,155.375 200.167,155.375C203.519,155.375 206.277,158.133 206.277,161.485C206.277,164.837 203.519,167.595 200.167,167.595C200.085,167.595 200.002,167.593 199.92,167.59" style="fill:rgb(0,46,92);fill-rule:nonzero;"/>
        <path d="M210.53,168.69L212,168.69L212,162.05L217.7,162.05L217.7,160.73L212,160.73L212,155.5L217.92,155.5L217.92,154.18L210.55,154.18L210.53,168.69Z" style="fill:rgb(0,46,92);fill-rule:nonzero;"/>
        <path d="M240.22,157.91C239.661,156.777 238.79,155.826 237.71,155.17C236.473,154.343 235.017,153.901 233.529,153.901C229.404,153.901 226.009,157.295 226.009,161.421C226.009,165.509 229.342,168.886 233.43,168.94L233.63,168.94C236.403,168.907 238.951,167.374 240.28,164.94L238.67,164.94C237.514,166.559 235.659,167.542 233.67,167.59C233.573,167.595 233.475,167.597 233.378,167.597C230.026,167.597 227.268,164.839 227.268,161.487C227.268,158.135 230.026,155.377 233.378,155.377C233.442,155.377 233.506,155.378 233.57,155.38C235.576,155.349 237.472,156.312 238.63,157.95L240.22,157.91Z" style="fill:rgb(0,46,92);fill-rule:nonzero;"/>
        <path d="M243.2,168.69L244.65,168.69L244.65,161.88L252.17,161.88L252.17,168.69L253.62,168.69L253.62,154.18L252.17,154.18L252.17,160.57L244.65,160.57L244.65,154.19L243.2,154.19L243.2,168.69Z" style="fill:rgb(0,46,92);fill-rule:nonzero;"/>
        <path d="M255.92,168.69L257.49,168.69L259.58,163.82L266.33,163.82L268.43,168.69L270,168.69L263.79,154.18L262.18,154.18L255.92,168.69ZM260.16,162.5L262.98,155.85L265.76,162.5L260.16,162.5Z" style="fill:rgb(0,46,92);fill-rule:nonzero;"/>
        <path d="M272.3,168.69L273.75,168.69L273.75,155.5L276.05,155.5C277.188,155.38 278.336,155.621 279.33,156.19C280.168,156.787 280.67,157.751 280.68,158.78C280.711,160.049 279.965,161.216 278.8,161.72C277.785,162.069 276.709,162.202 275.64,162.11L275.2,162.11L280.14,168.69L281.94,168.69L277.85,163.28C280.206,163.231 282.12,161.286 282.13,158.93C282.169,157.287 281.304,155.749 279.88,154.93C278.585,154.35 277.165,154.102 275.75,154.21L272.3,154.21L272.3,168.69Z" style="fill:rgb(0,46,92);fill-rule:nonzero;"/>
        <path d="M286.78,168.69L288.23,168.69L288.23,155.5L291.53,155.5L291.53,154.18L283.45,154.18L283.45,155.5L286.78,155.5L286.78,168.69Z" style="fill:rgb(0,46,92);fill-rule:nonzero;"/>
        <path d="M293.75,168.69L301.67,168.69L301.67,167.37L295.2,167.37L295.2,162L301.46,162L301.46,160.68L295.2,160.68L295.2,155.5L301.67,155.5L301.67,154.18L293.75,154.18L293.75,168.69Z" style="fill:rgb(0,46,92);fill-rule:nonzero;"/>
        <path d="M304.85,168.69L306.3,168.69L306.3,155.5L308.6,155.5C309.735,155.38 310.88,155.621 311.87,156.19C312.71,156.786 313.216,157.75 313.23,158.78C313.256,160.048 312.511,161.212 311.35,161.72C310.335,162.069 309.259,162.202 308.19,162.11L307.75,162.11L312.68,168.69L314.49,168.69L310.4,163.28C312.756,163.231 314.67,161.286 314.68,158.93C314.72,157.285 313.85,155.745 312.42,154.93C311.129,154.349 309.712,154.101 308.3,154.21L304.85,154.21L304.85,168.69Z" style="fill:rgb(0,46,92);fill-rule:nonzero;"/>
        <path d="M317.35,168.69L325.27,168.69L325.27,167.37L318.8,167.37L318.8,162L325.06,162L325.06,160.68L318.8,160.68L318.8,155.5L325.27,155.5L325.27,154.18L317.35,154.18L317.35,168.69Z" style="fill:rgb(0,46,92);fill-rule:nonzero;"/>
        <path d="M328.45,168.69L332.45,168.69C334.58,168.87 336.695,168.189 338.32,166.8C339.828,165.436 340.69,163.494 340.69,161.46C340.69,159.298 339.716,157.246 338.04,155.88C336.4,154.677 334.391,154.083 332.36,154.2L328.45,154.2L328.45,168.69ZM329.9,167.37L329.9,155.5L331.77,155.5C333.612,155.297 335.466,155.766 336.99,156.82C338.433,157.899 339.271,159.609 339.24,161.41C339.243,163.203 338.415,164.9 337,166C335.47,167.058 333.609,167.531 331.76,167.33L329.9,167.37Z" style="fill:rgb(0,46,92);fill-rule:nonzero;"/>
        <path d="M348.39,168.69L350,168.69L352.1,163.82L358.86,163.82L360.96,168.69L362.52,168.69L356.3,154.18L354.69,154.18L348.39,168.69ZM352.62,162.5L355.45,155.85L358.23,162.5L352.62,162.5Z" style="fill:rgb(0,46,92);fill-rule:nonzero;"/>
        <path d="M378.33,157.91C377.771,156.777 376.9,155.826 375.82,155.17C374.583,154.342 373.127,153.9 371.639,153.9C367.513,153.9 364.119,157.295 364.119,161.42C364.119,165.516 367.465,168.897 371.56,168.94L371.75,168.94C374.521,168.908 377.066,167.374 378.39,164.94L376.78,164.94C375.616,166.551 373.766,167.532 371.78,167.59C371.683,167.595 371.585,167.597 371.488,167.597C368.136,167.597 365.378,164.839 365.378,161.487C365.378,158.135 368.136,155.377 371.488,155.377C371.552,155.377 371.616,155.378 371.68,155.38C373.688,155.351 375.587,156.313 376.75,157.95L378.33,157.91Z" style="fill:rgb(0,46,92);fill-rule:nonzero;"/>
        <path d="M394.87,157.91C394.311,156.777 393.44,155.826 392.36,155.17C391.123,154.342 389.667,153.9 388.179,153.9C384.053,153.9 380.659,157.295 380.659,161.42C380.659,165.516 384.005,168.897 388.1,168.94L388.3,168.94C391.068,168.906 393.61,167.373 394.93,164.94L393.32,164.94C392.163,166.558 390.309,167.541 388.32,167.59C388.223,167.595 388.125,167.597 388.028,167.597C384.676,167.597 381.918,164.839 381.918,161.487C381.918,158.135 384.676,155.377 388.028,155.377C388.092,155.377 388.156,155.378 388.22,155.38C390.224,155.357 392.116,156.319 393.28,157.95L394.87,157.91Z" style="fill:rgb(0,46,92);fill-rule:nonzero;"/>
        <path d="M404.88,154L404.83,154C400.685,154 397.267,157.395 397.24,161.54C397.414,165.615 400.814,168.874 404.893,168.874C409.014,168.874 412.434,165.549 412.55,161.43C412.458,157.297 409.014,153.956 404.88,153.99M404.88,167.59C404.798,167.593 404.715,167.595 404.633,167.595C401.281,167.595 398.523,164.837 398.523,161.485C398.523,158.133 401.281,155.375 404.633,155.375C404.715,155.375 404.798,155.377 404.88,155.38C404.962,155.377 405.045,155.375 405.127,155.375C408.479,155.375 411.237,158.133 411.237,161.485C411.237,164.837 408.479,167.595 405.127,167.595C405.045,167.595 404.962,167.593 404.88,167.59" style="fill:rgb(0,46,92);fill-rule:nonzero;"/>
        <path d="M415.49,154.18L415.49,163C415.365,164.499 415.776,165.995 416.65,167.22C417.595,168.326 418.985,168.957 420.44,168.94C421.936,168.962 423.36,168.28 424.28,167.1C425.098,165.897 425.48,164.45 425.36,163L425.36,154.18L423.91,154.18L423.91,163C424.01,164.135 423.728,165.272 423.11,166.23C422.473,167.064 421.482,167.554 420.433,167.554C419.301,167.554 418.243,166.984 417.62,166.04C417.12,165.123 416.888,164.083 416.95,163.04L416.95,154.22L415.49,154.18Z" style="fill:rgb(0,46,92);fill-rule:nonzero;"/>
        <path d="M428.93,168.69L430.39,168.69L430.39,155.93L439,168.69L440.45,168.69L440.45,154.18L439,154.18L439,166.18L430.89,154.18L428.89,154.18L428.93,168.69Z" style="fill:rgb(0,46,92);fill-rule:nonzero;"/>
        <path d="M446,168.69L447.45,168.69L447.45,155.5L450.74,155.5L450.74,154.18L442.66,154.18L442.66,155.5L446,155.5L446,168.69Z" style="fill:rgb(0,46,92);fill-rule:nonzero;"/>
        <path d="M451.71,168.69L453.28,168.69L455.38,163.82L462.13,163.82L464.23,168.69L465.8,168.69L459.58,154.18L458,154.18L451.71,168.69ZM456,162.5L458.83,155.85L461.62,162.5L456,162.5Z" style="fill:rgb(0,46,92);fill-rule:nonzero;"/>
        <path d="M468.1,168.69L469.55,168.69L469.55,155.93L478.18,168.69L479.63,168.69L479.63,154.18L478.18,154.18L478.18,166.18L470.07,154.18L468.07,154.18L468.1,168.69Z" style="fill:rgb(0,46,92);fill-rule:nonzero;"/>
        <path d="M485.19,168.69L486.64,168.69L486.64,155.5L489.94,155.5L489.94,154.18L481.85,154.18L481.85,155.5L485.19,155.5L485.19,168.69Z" style="fill:rgb(0,46,92);fill-rule:nonzero;"/>
        <path d="M491.09,164.63L491.09,164.68C491.09,167.046 493.034,168.995 495.4,169L495.59,169C495.613,169 495.637,169.001 495.66,169.001C498.026,169.001 499.979,167.066 500,164.7C499.999,163.552 499.503,162.458 498.64,161.7C497.831,161.063 496.875,160.64 495.86,160.47C494.44,160.07 492.99,159.66 492.99,157.92L492.99,157.89C492.99,156.526 494.106,155.401 495.47,155.39C495.494,155.389 495.517,155.389 495.541,155.389C496.934,155.389 498.088,156.517 498.12,157.91L499.64,157.91C499.646,155.763 497.887,153.991 495.74,153.98L495.65,153.98C495.578,153.976 495.506,153.974 495.434,153.974C493.375,153.974 491.653,155.604 491.54,157.66L491.54,157.89C491.523,158.929 491.97,159.924 492.76,160.6C493.511,161.157 494.38,161.534 495.3,161.7C496.115,161.852 496.882,162.195 497.54,162.7C498.161,163.205 498.527,163.96 498.54,164.76C498.518,166.342 497.202,167.627 495.62,167.61L495.55,167.61C493.972,167.563 492.687,166.278 492.64,164.7L491.09,164.63Z" style="fill:rgb(0,46,92);fill-rule:nonzero;"/>
        <path d="M194.88,147.5L196.33,147.5L196.33,134.31L199.63,134.31L199.63,133L191.54,133L191.54,134.32L194.88,134.32L194.88,147.5Z" style="fill:rgb(0,46,92);fill-rule:nonzero;"/>
        <path d="M201.84,147.5L203.29,147.5L203.29,140.68L210.81,140.68L210.81,147.5L212.26,147.5L212.26,133L210.81,133L210.81,139.39L203.29,139.39L203.29,133L201.84,133L201.84,147.5Z" style="fill:rgb(0,46,92);fill-rule:nonzero;"/>
        <path d="M215.83,147.5L223.76,147.5L223.76,146.18L217.28,146.18L217.28,140.84L223.54,140.84L223.54,139.53L217.28,139.53L217.28,134.31L223.76,134.31L223.76,133L215.83,133L215.83,147.5Z" style="fill:rgb(0,46,92);fill-rule:nonzero;"/>
        <path d="M231.89,143.43L231.89,143.45C231.89,145.809 233.831,147.75 236.19,147.75L236.39,147.75C238.756,147.778 240.735,145.875 240.8,143.51C240.801,142.363 240.309,141.27 239.45,140.51C238.637,139.872 237.678,139.446 236.66,139.27C235.25,138.88 233.8,138.47 233.8,136.72L233.8,136.69C233.8,135.33 234.91,134.206 236.27,134.19C236.29,134.19 236.31,134.189 236.33,134.189C237.727,134.189 238.883,135.324 238.91,136.72L240.43,136.72L240.43,136.71C240.43,134.569 238.671,132.805 236.53,132.8L236.44,132.8C236.368,132.796 236.296,132.794 236.224,132.794C234.165,132.794 232.443,134.424 232.33,136.48C232.325,136.553 232.325,136.627 232.33,136.7C232.315,137.739 232.763,138.732 233.55,139.41C234.302,139.971 235.176,140.348 236.1,140.51C236.911,140.673 237.677,141.015 238.34,141.51C238.958,142.017 239.323,142.771 239.34,143.57C239.329,145.148 238.028,146.44 236.45,146.44L236.36,146.44C234.766,146.424 233.461,145.114 233.45,143.52L231.89,143.43Z" style="fill:rgb(0,46,92);fill-rule:nonzero;"/>
        <path d="M250.33,132.76L250.28,132.76C246.135,132.76 242.717,136.155 242.69,140.3C242.862,144.377 246.263,147.638 250.343,147.638C254.462,147.638 257.881,144.317 258,140.2C257.902,136.067 254.454,132.731 250.32,132.77M250.32,146.36C246.974,146.36 244.22,143.606 244.22,140.26C244.22,136.914 246.974,134.16 250.32,134.16C250.402,134.157 250.485,134.155 250.567,134.155C253.919,134.155 256.677,136.913 256.677,140.265C256.677,143.617 253.919,146.375 250.567,146.375C250.485,146.375 250.402,146.373 250.32,146.37" style="fill:rgb(0,46,92);fill-rule:nonzero;"/>
        <path d="M261,133L261,141.81C260.863,143.292 261.253,144.776 262.1,146C263.051,147.1 264.436,147.732 265.89,147.73C267.391,147.75 268.818,147.064 269.74,145.88C270.561,144.679 270.939,143.229 270.81,141.78L270.81,133L269.37,133L269.37,141.81C269.461,142.948 269.181,144.085 268.57,145.05C267.932,145.882 266.938,146.367 265.89,146.36C264.753,146.378 263.685,145.806 263.07,144.85C262.569,143.933 262.336,142.893 262.4,141.85L262.4,133L261,133Z" style="fill:rgb(0,46,92);fill-rule:nonzero;"/>
        <path d="M276.37,147.5L277.82,147.5L277.82,134.31L281.12,134.31L281.12,133L273,133L273,134.32L276.34,134.32L276.37,147.5Z" style="fill:rgb(0,46,92);fill-rule:nonzero;"/>
        <path d="M283.33,147.5L284.78,147.5L284.78,140.68L292.3,140.68L292.3,147.5L293.75,147.5L293.75,133L292.3,133L292.3,139.39L284.78,139.39L284.78,133L283.33,133L283.33,147.5Z" style="fill:rgb(0,46,92);fill-rule:nonzero;"/>
        <path d="M302.07,147.5L303.64,147.5L305.74,142.63L312.49,142.63L314.59,147.5L316.16,147.5L309.94,133L308.33,133L302.07,147.5ZM306.31,141.31L309.13,134.65L311.92,141.31L306.31,141.31Z" style="fill:rgb(0,46,92);fill-rule:nonzero;"/>
        <path d="M318.45,147.5L319.9,147.5L319.9,140.86L325.6,140.86L325.6,139.54L319.9,139.54L319.9,134.3L325.82,134.3L325.82,133L318.45,133L318.45,147.5Z" style="fill:rgb(0,46,92);fill-rule:nonzero;"/>
        <path d="M328.55,147.5L330,147.5L330,134.31L332.29,134.31C333.427,134.19 334.574,134.428 335.57,134.99C336.408,135.589 336.913,136.551 336.93,137.58C336.949,138.848 336.208,140.012 335.05,140.53C334.031,140.873 332.952,141.006 331.88,140.92L331.45,140.92L336.38,147.49L338.19,147.49L334.1,142.09C336.455,142.031 338.365,140.086 338.38,137.73C338.415,136.086 337.547,134.548 336.12,133.73C334.831,133.141 333.413,132.889 332,133L328.54,133L328.55,147.5Z" style="fill:rgb(0,46,92);fill-rule:nonzero;"/>
        <rect x="341.05" y="133" width="1.46" height="14.5" style="fill:rgb(0,46,92);"/>
        <path d="M359.63,136.72C359.072,135.583 358.201,134.629 357.12,133.97C355.876,133.163 354.422,132.739 352.94,132.75L352.9,132.75C348.786,132.75 345.4,136.136 345.4,140.25C345.4,144.349 348.761,147.728 352.86,147.75L353.06,147.75C355.828,147.716 358.37,146.183 359.69,143.75L358.08,143.75C356.921,145.364 355.067,146.343 353.08,146.39C352.983,146.395 352.886,146.397 352.788,146.397C349.442,146.397 346.688,143.643 346.688,140.297C346.688,136.951 349.442,134.197 352.788,134.197C352.852,134.197 352.916,134.198 352.98,134.2C354.986,134.179 356.881,135.14 358.05,136.77L359.63,136.72Z" style="fill:rgb(0,46,92);fill-rule:nonzero;"/>
        <path d="M361.34,147.5L362.91,147.5L365.01,142.63L371.76,142.63L373.86,147.5L375.43,147.5L369.21,133L367.6,133L361.34,147.5ZM365.58,141.31L368.41,134.65L371.19,141.31L365.58,141.31Z" style="fill:rgb(0,46,92);fill-rule:nonzero;"/>
        <path d="M377.73,147.5L379.18,147.5L379.18,134.74L387.81,147.5L389.27,147.5L389.27,133L387.81,133L387.81,145L379.7,133L377.7,133L377.73,147.5Z" style="fill:rgb(0,46,92);fill-rule:nonzero;"/>
        <rect x="398.86" y="133" width="1.45" height="14.5" style="fill:rgb(0,46,92);"/>
        <path d="M403.88,147.5L405.33,147.5L405.33,134.74L414,147.5L415.45,147.5L415.45,133L414,133L414,145L405.88,133L403.88,133L403.88,147.5Z" style="fill:rgb(0,46,92);fill-rule:nonzero;"/>
        <path d="M417.93,143.43L417.93,143.45C417.93,145.805 419.865,147.745 422.22,147.75L422.42,147.75C424.788,147.783 426.77,145.877 426.83,143.51C426.831,142.363 426.339,141.27 425.48,140.51C424.67,139.874 423.715,139.448 422.7,139.27C421.28,138.88 419.83,138.47 419.83,136.72L419.83,136.69C419.83,135.33 420.94,134.206 422.3,134.19C423.719,134.162 424.912,135.301 424.95,136.72L426.46,136.72L426.46,136.69C426.46,134.556 424.704,132.8 422.57,132.8L422.48,132.8C422.408,132.796 422.336,132.794 422.264,132.794C420.2,132.794 418.473,134.429 418.36,136.49L418.36,136.7C418.345,137.739 418.793,138.732 419.58,139.41C420.333,139.969 421.206,140.346 422.13,140.51C422.941,140.673 423.707,141.015 424.37,141.51C424.991,142.015 425.357,142.77 425.37,143.57C425.359,145.148 424.058,146.44 422.48,146.44L422.36,146.44C420.77,146.418 419.471,145.11 419.46,143.52L417.93,143.43Z" style="fill:rgb(0,46,92);fill-rule:nonzero;"/>
        <path d="M431.32,147.5L432.77,147.5L432.77,134.31L436.07,134.31L436.07,133L428,133L428,134.32L431.33,134.32L431.32,147.5Z" style="fill:rgb(0,46,92);fill-rule:nonzero;"/>
        <rect x="438.29" y="133" width="1.45" height="14.5" style="fill:rgb(0,46,92);"/>
        <path d="M445.29,147.5L446.74,147.5L446.74,134.31L450,134.31L450,133L442,133L442,134.32L445.34,134.32L445.29,147.5Z" style="fill:rgb(0,46,92);fill-rule:nonzero;"/>
        <path d="M452.25,133L452.25,141.81C452.119,143.31 452.531,144.808 453.41,146.03C454.351,147.137 455.737,147.771 457.19,147.76C458.679,147.768 460.09,147.079 461,145.9C461.821,144.699 462.199,143.249 462.07,141.8L462.07,133L460.63,133L460.63,141.81C460.723,142.949 460.438,144.088 459.82,145.05C459.18,145.877 458.192,146.362 457.147,146.362C456.015,146.362 454.956,145.793 454.33,144.85C453.838,143.93 453.606,142.892 453.66,141.85L453.66,133L452.25,133Z" style="fill:rgb(0,46,92);fill-rule:nonzero;"/>
        <path d="M467.67,147.5L469.12,147.5L469.12,134.31L472.42,134.31L472.42,133L464.34,133L464.34,134.32L467.67,134.32L467.67,147.5Z" style="fill:rgb(0,46,92);fill-rule:nonzero;"/>
        <path d="M474.63,147.5L482.56,147.5L482.56,146.18L476.09,146.18L476.09,140.84L482.34,140.84L482.34,139.53L476.09,139.53L476.09,134.31L482.56,134.31L482.56,133L474.63,133L474.63,147.5Z" style="fill:rgb(0,46,92);fill-rule:nonzero;"/>
        <path d="M192.29,94.61C192.19,106.76 201.99,115.33 213.86,115.33C225.228,115.508 234.757,106.366 235.05,95C235.078,89.429 232.708,84.107 228.55,80.4C224.5,76.73 220.16,75.88 215.18,74.47C208.39,72.59 201.41,70.61 201.41,62.23C201.409,62.173 201.409,62.116 201.409,62.06C201.409,55.518 206.758,50.119 213.3,50.06L213.37,50.06C220.182,49.899 225.922,55.368 226.09,62.18L233.34,62.18L233.34,62.11C233.34,51.836 224.904,43.373 214.63,43.34L214.24,43.34C203.31,43.34 194.45,50.88 194.45,62.08C194.378,67.061 196.519,71.826 200.29,75.08C203.906,77.765 208.096,79.572 212.53,80.36C216.416,81.069 220.09,82.656 223.27,85C226.249,87.427 228.011,91.048 228.08,94.89C228.026,102.461 221.782,108.661 214.21,108.661C214.167,108.661 214.123,108.66 214.08,108.66L213.62,108.66C205.989,108.558 199.75,102.291 199.68,94.66L192.29,94.61Z" style="fill:rgb(0,46,92);fill-rule:nonzero;"/>
        <path d="M238.13,114.11L245.67,114.11L255.75,90.75L288.15,90.75L298.23,114.11L305.77,114.11L275.9,44.5L268.18,44.5L238.13,114.11ZM258.48,84.44L272,52.51L285.38,84.44L258.48,84.44Z" style="fill:rgb(0,46,92);fill-rule:nonzero;"/>
        <rect x="314" y="44.5" width="7" height="69.61" style="fill:rgb(0,46,92);"/>
        <path d="M400.31,62.4C398.42,57.31 392.68,52.04 388.25,49.21C382.331,45.274 375.379,43.173 368.27,43.173C348.478,43.173 332.19,59.46 332.19,79.253C332.19,98.868 348.186,115.074 367.8,115.33L368.75,115.33C382.085,115.14 394.307,107.694 400.59,95.93L392.86,95.93C387.281,103.727 378.335,108.447 368.75,108.65C352.609,108.426 339.394,95.211 339.17,79.07C339.56,63.274 352.473,50.405 368.27,50.07C377.893,49.95 386.985,54.563 392.57,62.4L400.31,62.4Z" style="fill:rgb(0,46,92);fill-rule:nonzero;"/>
        <path d="M405.68,114.11L413.22,114.11L423.29,90.75L455.7,90.75L465.77,114.11L473.31,114.11L443.45,44.5L435.73,44.5L405.68,114.11ZM426,84.44L439.56,52.51L453,84.44L426,84.44Z" style="fill:rgb(0,46,92);fill-rule:nonzero;"/>
        <rect x="175.21" y="43.37" width="1.32" height="130.94" style="fill:rgb(0,46,92);"/>
    </g>
</svg>
