<?xml version="1.0" encoding="UTF-8" standalone="no"?>
<!DOCTYPE svg PUBLIC "-//W3C//DTD SVG 1.1//EN" "http://www.w3.org/Graphics/SVG/1.1/DTD/svg11.dtd">
<svg width="100%" height="100%" viewBox="0 0 512 512" version="1.1" xmlns="http://www.w3.org/2000/svg" xmlns:xlink="http://www.w3.org/1999/xlink" xml:space="preserve" xmlns:serif="http://www.serif.com/" style="fill-rule:evenodd;clip-rule:evenodd;stroke-linejoin:round;stroke-miterlimit:2;">
    <g id="Circle" transform="matrix(1.20578,0,0,1.20578,-51.4489,-53.5523)">
        <path id="Circle1" serif:id="Circle" d="M409.058,111.819C444.28,149.614 465.843,200.309 465.843,256C465.843,372.778 371.034,467.587 254.256,467.587C198.564,467.587 147.869,446.024 110.075,410.803L125.044,395.834C159.005,427.233 204.406,446.428 254.256,446.428C359.356,446.428 444.684,361.1 444.684,256C444.684,206.151 425.488,160.75 394.089,126.788L409.058,111.819ZM97.223,397.751C63.319,360.216 42.668,310.5 42.668,256C42.668,139.222 137.477,44.413 254.256,44.413C308.756,44.413 358.471,65.063 396.006,98.968L381.026,113.948C347.34,83.863 302.917,65.572 254.256,65.572C149.155,65.572 63.827,150.9 63.827,256C63.827,304.661 82.119,349.084 112.203,382.77L97.223,397.751Z" style="fill:rgb(0,46,92);"/>
        <g transform="matrix(-0.63565,-0.63565,0.548286,-0.548286,272.549,564.449)">
            <path d="M244.007,102.3L244.007,424.553L267.993,424.553L267.993,102.3L244.007,102.3Z" style="fill:rgb(0,46,92);"/>
        </g>
        <g transform="matrix(0.829339,0,0,0.829339,97.8933,-31.2005)">
            <path d="M121.242,234.007L153.678,247.442L167.113,279.877L153.678,312.312L121.242,325.747L88.807,312.312L75.372,279.877L88.807,247.442L121.242,234.007ZM121.242,256.737L137.605,263.515C137.605,263.515 144.382,279.877 144.382,279.877C144.382,279.877 137.605,296.24 137.605,296.24C137.605,296.24 121.242,303.017 121.242,303.017C121.242,303.017 104.88,296.24 104.88,296.24C104.88,296.24 98.102,279.877 98.102,279.877C98.102,279.877 104.88,263.515 104.88,263.515L121.242,256.737Z" style="fill:rgb(0,46,92);"/>
        </g>
        <g transform="matrix(0.829339,0,0,0.829339,210.648,81.5542)">
            <path d="M121.242,234.007L153.678,247.442L167.113,279.877L153.678,312.312L121.242,325.747L88.807,312.312L75.372,279.877L88.807,247.442L121.242,234.007ZM121.242,256.737L137.605,263.515C137.605,263.515 144.382,279.877 144.382,279.877C144.382,279.877 137.605,296.24 137.605,296.24C137.605,296.24 121.242,303.017 121.242,303.017C121.242,303.017 104.88,296.24 104.88,296.24C104.88,296.24 98.102,279.877 98.102,279.877C98.102,279.877 104.88,263.515 104.88,263.515L121.242,256.737Z" style="fill:rgb(0,46,92);"/>
        </g>
    </g>
</svg>
