<?xml version="1.0" encoding="UTF-8" standalone="no"?>
<!DOCTYPE svg PUBLIC "-//W3C//DTD SVG 1.1//EN" "http://www.w3.org/Graphics/SVG/1.1/DTD/svg11.dtd">
<svg width="100%" height="100%" viewBox="0 0 512 512" version="1.1" xmlns="http://www.w3.org/2000/svg" xmlns:xlink="http://www.w3.org/1999/xlink" xml:space="preserve" xmlns:serif="http://www.serif.com/" style="fill-rule:evenodd;clip-rule:evenodd;stroke-linejoin:round;stroke-miterlimit:2;">
    <g id="Layer1" transform="matrix(0.822315,0,0,0.822315,48.9674,38.9508)">
        <g transform="matrix(-0.576988,0.000429817,-0.000601064,-0.8768,255.458,690.666)">
            <path d="M318.801,340.606C318.801,387.302 261.544,425.213 191.019,425.213C120.494,425.213 63.237,387.302 63.237,340.606L318.801,340.606ZM277.576,363.416C263.895,386.232 230.31,402.403 191.017,402.403C151.725,402.403 118.14,386.232 104.46,363.416C104.46,363.417 277.576,363.417 277.576,363.417L277.576,363.416Z" style="fill:rgb(245,251,255);"/>
        </g>
        <g transform="matrix(-0.415493,0.512754,-0.478829,-0.42163,591.22,123.128)">
            <path d="M456.613,180.212L332.756,180.212L332.756,256L456.613,256L456.613,180.212ZM426.283,211.586L426.283,224.626C426.283,224.626 363.087,224.626 363.087,224.626C363.087,224.626 363.087,211.586 363.087,211.586L426.283,211.586Z" style="fill:rgb(245,251,255);"/>
        </g>
        <g transform="matrix(0.841109,0,0,0.8768,23.2506,33.7832)">
            <path d="M232.45,75.98C264.703,75.98 290.889,102.166 290.889,134.42C290.889,166.673 264.703,192.859 232.45,192.859C200.196,192.859 174.01,166.673 174.01,134.42C174.01,102.166 200.196,75.98 232.45,75.98ZM232.45,105.2C248.577,105.2 261.67,118.293 261.67,134.42C261.67,150.546 248.577,163.639 232.45,163.639C216.323,163.639 203.23,150.546 203.23,134.42C203.23,118.293 216.323,105.2 232.45,105.2Z" style="fill:rgb(245,251,255);"/>
        </g>
        <g transform="matrix(-0.319885,0.394766,-0.478829,-0.42163,574.906,188.656)">
            <path d="M456.613,180.212L332.756,180.212L332.756,256L456.613,256L456.613,180.212ZM417.218,211.586L417.218,224.626C417.218,224.626 372.152,224.626 372.152,224.626C372.152,224.626 372.152,211.586 372.152,211.586L417.218,211.586Z" style="fill:rgb(245,251,255);"/>
        </g>
        <g transform="matrix(0.722416,0.287112,-0.299639,0.819277,124.631,-11.5071)">
            <path d="M219.366,165.82L142.61,165.82L141.008,362.435L219.366,351.605L219.366,165.82ZM193.629,188.755L193.629,332.05C193.629,332.05 166.959,335.736 166.959,335.736C166.959,335.736 168.156,188.755 168.156,188.755L193.629,188.755Z" style="fill:rgb(245,251,255);"/>
        </g>
        <g transform="matrix(0.841109,0,0,0.589446,13.0944,110.069)">
            <path d="M465.451,382.712L405.562,342.575L405.562,270.095L381.784,270.095L381.784,353.35C381.784,359.926 384.447,365.91 388.619,368.706L455.342,413.424L465.451,382.712Z" style="fill:rgb(245,251,255);"/>
        </g>
        <g transform="matrix(-0.493889,0.620066,-0.412611,-0.357132,478.056,180.825)">
            <path d="M219.366,165.82L142.61,165.82L141.008,362.435L219.366,351.605L219.366,165.82ZM194.116,202.501L194.116,318.107C194.116,318.107 166.603,321.91 166.603,321.91C166.603,321.91 167.576,202.501 167.576,202.501L194.116,202.501Z" style="fill:rgb(245,251,255);"/>
        </g>
        <g transform="matrix(0.193336,0.853323,0.550311,-0.135489,133.668,-50.3416)">
            <path d="M455.804,414.098L389.286,369.517C385.021,366.659 382.242,360.151 382.242,353.022L382.242,269.087L405.104,269.744L405.104,341.903L464.578,381.763L455.804,414.098Z" style="fill:rgb(245,251,255);"/>
        </g>
    </g>
    <g id="Circle" transform="matrix(1.20578,0,0,1.20578,-51.4489,-53.5523)">
        <path d="M409.058,111.819C444.28,149.614 465.843,200.309 465.843,256C465.843,372.778 371.034,467.587 254.256,467.587C198.564,467.587 147.869,446.024 110.075,410.803L125.044,395.834C159.005,427.233 204.406,446.428 254.256,446.428C359.356,446.428 444.684,361.1 444.684,256C444.684,206.151 425.488,160.75 394.089,126.788L409.058,111.819ZM97.223,397.751C63.319,360.216 42.668,310.5 42.668,256C42.668,139.222 137.477,44.413 254.256,44.413C308.756,44.413 358.471,65.063 396.006,98.968L381.026,113.948C347.34,83.863 302.917,65.572 254.256,65.572C149.155,65.572 63.827,150.9 63.827,256C63.827,304.661 82.119,349.084 112.203,382.77L97.223,397.751Z" style="fill:rgb(245,251,255);"/>
    </g>
</svg>
