<?xml version="1.0" encoding="UTF-8" standalone="no"?>
<!DOCTYPE svg PUBLIC "-//W3C//DTD SVG 1.1//EN" "http://www.w3.org/Graphics/SVG/1.1/DTD/svg11.dtd">
<svg width="100%" height="100%" viewBox="0 0 512 512" version="1.1" xmlns="http://www.w3.org/2000/svg" xmlns:xlink="http://www.w3.org/1999/xlink" xml:space="preserve" xmlns:serif="http://www.serif.com/" style="fill-rule:evenodd;clip-rule:evenodd;stroke-linejoin:round;stroke-miterlimit:2;">
    <g id="Circle" transform="matrix(1.20578,0,0,1.20578,-51.4489,-53.5523)">
        <path d="M409.058,111.819C444.28,149.614 465.843,200.309 465.843,256C465.843,372.778 371.034,467.587 254.256,467.587C198.564,467.587 147.869,446.024 110.075,410.803L125.044,395.834C159.005,427.233 204.406,446.428 254.256,446.428C359.356,446.428 444.684,361.1 444.684,256C444.684,206.151 425.488,160.75 394.089,126.788L409.058,111.819ZM97.223,397.751C63.319,360.216 42.668,310.5 42.668,256C42.668,139.222 137.477,44.413 254.256,44.413C308.756,44.413 358.471,65.063 396.006,98.968L381.026,113.948C347.34,83.863 302.917,65.572 254.256,65.572C149.155,65.572 63.827,150.9 63.827,256C63.827,304.661 82.119,349.084 112.203,382.77L97.223,397.751Z" style="fill:rgb(13,84,115);"/>
    </g>
    <path d="M194.083,315.389L222.885,384.926L303.999,418.524L385.113,384.926L418.711,303.812L385.113,222.698L317.917,194.865L289.115,125.329L208.001,91.731L126.887,125.329L93.289,206.443L126.887,287.556L194.083,315.389ZM289.115,287.556L316.136,222.321L365.177,242.634C365.177,242.634 390.518,303.812 390.518,303.812C390.518,303.812 365.177,364.99 365.177,364.99C365.177,364.99 303.999,390.331 303.999,390.331C303.999,390.331 242.821,364.99 242.821,364.99L222.224,315.263L289.115,287.556ZM289.776,194.991L222.885,222.698L195.864,287.934L146.823,267.621C146.823,267.621 121.482,206.443 121.482,206.443C121.482,206.443 146.823,145.265 146.823,145.265L208.001,119.924L269.179,145.265L289.776,194.991ZM242.821,242.634L224.869,285.974L269.179,267.621L287.131,224.28L242.821,242.634Z" style="fill:rgb(13,84,115);"/>
</svg>
