<?xml version="1.0" encoding="UTF-8" standalone="no"?>
<!DOCTYPE svg PUBLIC "-//W3C//DTD SVG 1.1//EN" "http://www.w3.org/Graphics/SVG/1.1/DTD/svg11.dtd">
<svg width="100%" height="100%" viewBox="0 0 87 91" version="1.1" xmlns="http://www.w3.org/2000/svg" xmlns:xlink="http://www.w3.org/1999/xlink" xml:space="preserve" xmlns:serif="http://www.serif.com/" style="fill-rule:evenodd;clip-rule:evenodd;stroke-linejoin:round;stroke-miterlimit:2;">
    <g id="fingerprint">
        <g transform="matrix(1,0,0,1,65.7197,34.3186)">
            <path d="M0,20.438C-0.058,23.507 -0.283,26.541 -0.614,29.569C-0.712,30.469 -0.919,31.347 -1.038,32.241C-1.148,33.06 -2.074,33.412 -2.696,33.266C-3.357,33.112 -3.838,32.327 -3.722,31.643C-3.254,28.911 -2.984,26.16 -2.86,23.388C-2.735,20.595 -2.768,17.804 -3.021,15.027C-3.378,11.097 -3.73,7.147 -5.141,3.413C-6.524,-0.251 -8.804,-3.258 -11.96,-5.618C-14.979,-7.874 -18.339,-9.236 -22.075,-9.62C-25.677,-9.989 -29.157,-9.469 -32.487,-7.995C-35.115,-6.832 -37.417,-5.21 -39.32,-3.075C-42.402,0.382 -44.207,4.412 -44.617,9.063C-44.801,11.148 -44.541,13.171 -44.173,15.208C-43.684,17.924 -43.436,20.659 -43.867,23.413C-44.005,24.292 -44.545,24.744 -45.34,24.676C-46.111,24.611 -46.604,24.049 -46.534,23.156C-46.352,20.813 -46.335,18.47 -46.801,16.169C-47.177,14.311 -47.467,12.451 -47.441,10.564C-47.375,5.78 -45.972,1.406 -43.257,-2.544C-42.027,-4.334 -40.539,-5.885 -38.872,-7.265C-35.407,-10.134 -31.412,-11.779 -26.963,-12.324C-21.658,-12.974 -16.74,-11.822 -12.166,-9.089C-10.092,-7.85 -8.301,-6.285 -6.71,-4.479C-3.661,-1.018 -1.974,3.054 -1.201,7.567C-0.471,11.837 -0.093,16.134 0,20.438" style="fill:rgb(219,166,7);fill-rule:nonzero;"/>
        </g>
        <g transform="matrix(1,0,0,1,22.5629,34.951)">
            <path d="M0,-14.877C-1.269,-13.918 -2.471,-12.858 -3.596,-11.704C-6.007,-9.231 -8.057,-6.369 -9.478,-3.214C-10.604,-0.714 -11.475,1.864 -11.936,4.574C-12.067,5.349 -12.518,5.789 -13.184,5.86C-13.738,5.92 -14.294,5.587 -14.568,5.039C-14.727,4.723 -14.715,4.396 -14.652,4.06C-13.546,-1.88 -11.091,-7.195 -7.203,-11.823C-3.343,-16.416 1.394,-19.786 7.029,-21.883C11.359,-23.494 15.832,-24.205 20.438,-24.007C24.701,-23.824 28.781,-22.829 32.693,-21.112C35.333,-19.954 37.74,-18.433 40.027,-16.697C46.3,-11.934 50.464,-4.883 52.21,2.741C52.567,4.298 52.843,5.873 53.077,7.453C53.21,8.359 52.763,9.061 51.994,9.19C51.166,9.328 50.516,8.847 50.368,7.883C50.069,5.94 49.749,3.999 49.239,2.102C48.024,-2.418 45.965,-6.508 42.917,-10.086C41.474,-11.781 39.868,-13.287 38.112,-14.661C35.038,-17.067 31.64,-18.815 27.918,-19.952C24.367,-21.037 20.723,-21.476 17.029,-21.229C10.809,-20.814 4.909,-18.591 0,-14.877" style="fill:rgb(219,166,7);fill-rule:nonzero;"/>
        </g>
        <g transform="matrix(1,0,0,1,41.4384,63.6104)">
            <path d="M0,-58.115C1.667,-58.177 3.291,-58.025 4.913,-57.864C5.089,-57.846 5.264,-57.812 5.435,-57.77C6.221,-57.575 6.623,-56.941 6.488,-56.122C6.375,-55.433 5.728,-54.945 4.976,-55.062C2.711,-55.416 0.431,-55.43 -1.846,-55.334C-5.041,-55.2 -8.159,-54.593 -11.205,-53.618C-12.61,-53.169 -13.985,-52.646 -15.326,-52.028C-18.573,-50.531 -21.554,-48.62 -24.229,-46.253C-25.537,-45.095 -26.743,-43.835 -27.89,-42.51C-29.233,-40.958 -30.409,-39.296 -31.464,-37.548C-33.864,-33.572 -35.476,-29.295 -36.239,-24.703C-36.947,-20.436 -36.966,-16.171 -36.112,-11.93C-35.681,-9.788 -35.635,-7.682 -36.218,-5.583C-36.751,-3.666 -37.671,-1.944 -39.049,-0.491C-39.605,0.094 -40.439,0.098 -41.011,-0.428C-41.545,-0.922 -41.598,-1.725 -41.06,-2.339C-40.153,-3.373 -39.46,-4.517 -39.011,-5.82C-38.445,-7.461 -38.372,-9.13 -38.71,-10.818C-39.847,-16.488 -39.777,-22.137 -38.429,-27.763C-37.3,-32.473 -35.352,-36.819 -32.639,-40.834C-31.493,-42.531 -30.236,-44.146 -28.86,-45.643C-26.952,-47.719 -24.78,-49.528 -22.454,-51.14C-18.319,-54.007 -13.784,-55.989 -8.9,-57.129C-5.974,-57.812 -2.991,-58.213 0,-58.115" style="fill:rgb(219,166,7);fill-rule:nonzero;"/>
        </g>
        <g transform="matrix(1,0,0,1,49.2577,75.724)">
            <path d="M0,-24.026C0.244,-19.211 -0.123,-14.442 -1.095,-9.728C-2.099,-4.856 -3.716,-0.192 -5.975,4.249C-7.591,7.43 -9.479,10.432 -11.651,13.26C-12.036,13.761 -12.492,14.108 -13.149,13.988C-14.193,13.797 -14.611,12.704 -13.966,11.794C-13.138,10.626 -12.26,9.495 -11.473,8.295C-10.383,6.636 -9.426,4.906 -8.51,3.145C-6.778,-0.18 -5.462,-3.66 -4.494,-7.275C-3.729,-10.127 -3.229,-13.026 -2.938,-15.963C-2.717,-18.197 -2.631,-20.435 -2.717,-22.673C-2.835,-25.717 -3.152,-28.744 -3.817,-31.721C-4.293,-33.853 -6.478,-35.166 -8.663,-34.687C-10.811,-34.217 -12.217,-32.123 -11.766,-29.989C-10.946,-26.119 -10.753,-22.204 -10.926,-18.268C-11.024,-16.029 -11.363,-13.813 -11.843,-11.623C-11.997,-10.922 -12.514,-10.502 -13.164,-10.48C-13.774,-10.46 -14.306,-10.867 -14.514,-11.509C-14.589,-11.742 -14.578,-11.967 -14.525,-12.205C-14.02,-14.453 -13.784,-16.733 -13.657,-19.031C-13.463,-22.524 -13.792,-25.967 -14.493,-29.388C-15.093,-32.319 -13.655,-35.3 -11,-36.74C-8.428,-38.134 -5.239,-37.688 -3.081,-35.661C-1.917,-34.568 -1.239,-33.234 -0.977,-31.675C-0.784,-30.533 -0.564,-29.393 -0.421,-28.245C-0.245,-26.842 -0.137,-25.432 0,-24.026" style="fill:rgb(219,166,7);fill-rule:nonzero;"/>
        </g>
        <g transform="matrix(1,0,0,1,82.0009,19.3073)">
            <path d="M0,35.505C0.1,39.049 -0.228,42.568 -0.601,46.086C-0.671,46.751 -0.888,47.324 -1.591,47.548C-2.124,47.717 -2.596,47.578 -2.991,47.176C-3.325,46.836 -3.39,46.418 -3.35,45.975C-3.217,44.488 -3.06,43.004 -2.942,41.517C-2.692,38.34 -2.671,35.154 -2.797,31.974C-2.873,30.035 -3.001,28.096 -3.229,26.166C-3.866,20.808 -4.704,15.498 -6.995,10.541C-8.185,7.966 -9.6,5.523 -11.363,3.297C-11.967,2.535 -12.571,1.754 -13.292,1.112C-14.261,0.251 -15.057,-0.766 -15.979,-1.657C-16.818,-2.467 -17.752,-3.181 -18.707,-3.873C-19.822,-4.682 -20.959,-5.44 -22.136,-6.147C-24.132,-7.344 -26.246,-8.283 -28.441,-9.046C-28.775,-9.162 -29.115,-9.269 -29.436,-9.416C-30.149,-9.742 -30.424,-10.456 -30.138,-11.185C-29.877,-11.848 -29.137,-12.212 -28.444,-11.979C-25.87,-11.113 -23.387,-10.042 -21.021,-8.702C-17.523,-6.721 -14.415,-4.247 -11.664,-1.325C-9.408,1.072 -7.513,3.733 -5.897,6.603C-4.425,9.221 -3.301,11.986 -2.461,14.855C-1.75,17.286 -1.333,19.793 -0.949,22.299C-0.58,24.706 -0.352,27.131 -0.16,29.557C-0.004,31.534 0.067,33.52 0,35.505" style="fill:rgb(219,166,7);fill-rule:nonzero;"/>
        </g>
        <g transform="matrix(1,0,0,1,41.3788,78.2177)">
            <path d="M0,-48.129C-3.549,-48.146 -6.706,-47.005 -9.423,-44.748C-12.658,-42.06 -14.418,-38.582 -14.848,-34.387C-15.043,-32.484 -14.633,-30.673 -14.325,-28.84C-13.508,-23.992 -13.861,-19.218 -15.094,-14.478C-15.384,-13.361 -15.69,-12.228 -16.121,-11.189C-17.137,-8.736 -18.346,-6.363 -19.875,-4.164C-21.441,-1.911 -23.245,0.122 -25.261,1.975C-25.392,2.095 -25.525,2.212 -25.663,2.322C-26.322,2.85 -27.08,2.832 -27.566,2.279C-28.124,1.646 -28.079,0.801 -27.43,0.234C-26.065,-0.958 -24.792,-2.239 -23.674,-3.666C-22.713,-4.892 -21.77,-6.134 -21.016,-7.503C-19.644,-9.994 -18.436,-12.557 -17.723,-15.328C-16.865,-18.659 -16.502,-22.03 -16.713,-25.476C-16.829,-27.369 -17.274,-29.201 -17.505,-31.068C-17.864,-33.963 -17.511,-36.787 -16.465,-39.519C-15.464,-42.132 -13.946,-44.411 -11.883,-46.283C-9.343,-48.589 -6.37,-50.071 -2.966,-50.669C-1.523,-50.922 -0.081,-50.979 1.374,-50.9C2.171,-50.857 2.769,-50.248 2.759,-49.5C2.75,-48.714 2.12,-48.125 1.297,-48.129C0.865,-48.13 0.432,-48.129 0,-48.129" style="fill:rgb(219,166,7);fill-rule:nonzero;"/>
        </g>
        <g transform="matrix(1,0,0,1,58.4648,48.6202)">
            <path d="M0,21.486C-0.68,24.408 -1.565,27.278 -2.667,30.053C-3.981,33.365 -5.49,36.579 -7.273,39.664C-7.927,40.795 -9.146,40.96 -9.773,39.977C-10.091,39.481 -10.064,38.989 -9.765,38.479C-7.859,35.235 -6.25,31.846 -4.957,28.314C-3.269,23.705 -2.127,18.963 -1.5,14.086C-1.032,10.445 -0.942,6.797 -1.077,3.144C-1.211,-0.451 -1.657,-4.024 -2.51,-7.526C-3.087,-9.898 -4.312,-11.944 -5.942,-13.759C-6.964,-14.897 -8.175,-15.788 -9.469,-16.577C-10.334,-17.105 -10.608,-17.866 -10.181,-18.585C-9.727,-19.35 -8.939,-19.474 -8.033,-18.929C-3.15,-15.988 -0.347,-11.656 0.636,-6.076C1.437,-1.535 1.815,3.035 1.716,7.644C1.616,12.276 1.057,16.944 0,21.486" style="fill:rgb(219,166,7);fill-rule:nonzero;"/>
        </g>
        <g transform="matrix(1,0,0,1,39.6288,20.7092)">
            <path d="M0,-20.664C2.973,-20.796 5.931,-20.641 8.865,-20.17C13.276,-19.464 17.505,-18.156 21.508,-16.158C22.578,-15.623 22.736,-14.692 21.947,-13.804C21.634,-13.452 20.918,-13.392 20.314,-13.685C19.396,-14.131 18.467,-14.549 17.518,-14.928C13.74,-16.436 9.832,-17.39 5.78,-17.769C0.397,-18.274 -4.88,-17.716 -10.063,-16.209C-13.571,-15.19 -16.892,-13.741 -20.007,-11.83C-22.405,-10.359 -24.654,-8.696 -26.725,-6.78C-28.21,-5.406 -29.573,-3.934 -30.838,-2.359C-31.292,-1.794 -31.765,-1.245 -32.203,-0.665C-32.698,-0.011 -33.511,0.132 -34.138,-0.289C-34.779,-0.719 -34.942,-1.488 -34.457,-2.205C-33.43,-3.719 -32.235,-5.103 -30.989,-6.439C-27.42,-10.268 -23.288,-13.354 -18.638,-15.753C-14.219,-18.032 -9.537,-19.49 -4.627,-20.227C-3.094,-20.456 -1.55,-20.604 0,-20.664" style="fill:rgb(219,166,7);fill-rule:nonzero;"/>
        </g>
        <g transform="matrix(1,0,0,1,70.3476,68.0935)">
            <path d="M0,-24.226C-0.635,-28.95 -1.679,-33.546 -4.205,-37.678C-4.472,-38.113 -4.731,-38.554 -5.012,-38.98C-5.343,-39.484 -6.022,-39.62 -6.518,-39.276L-7.073,-38.891C-7.564,-38.551 -7.687,-37.87 -7.333,-37.389L-7.327,-37.38C-5.637,-35.09 -4.549,-32.496 -3.854,-29.757C-2.596,-24.803 -2.115,-19.74 -1.981,-14.643C-1.878,-10.731 -2.188,-6.839 -2.696,-2.962C-2.989,-0.721 -3.413,1.499 -3.926,3.7C-4.649,6.804 -5.582,9.845 -6.684,12.835C-6.778,13.093 -6.873,13.354 -6.93,13.621C-7.077,14.317 -6.71,14.965 -6.073,15.17C-5.381,15.394 -4.631,15.081 -4.365,14.41C-3.683,12.692 -3.111,10.939 -2.566,9.172C-0.375,2.06 0.673,-5.228 0.785,-12.655C0.845,-16.53 0.517,-20.387 0,-24.226" style="fill:rgb(219,166,7);fill-rule:nonzero;"/>
        </g>
        <g transform="matrix(1,0,0,1,21.5297,71.1922)">
            <path d="M0,-46.731C0.227,-46.965 0.456,-47.197 0.688,-47.426C1.103,-47.836 1.623,-48.554 2.202,-48.715C2.784,-48.877 3.596,-48.62 3.91,-48.091C4.335,-47.373 4.183,-46.733 3.46,-46.13C1.054,-44.123 -0.967,-41.787 -2.508,-39.052C-4.992,-34.642 -6.146,-29.906 -5.931,-24.846C-5.858,-23.133 -5.458,-21.465 -5.199,-19.777C-4.475,-15.05 -5.231,-10.546 -7.3,-6.254C-8.789,-3.166 -10.88,-0.549 -13.562,1.59C-14.26,2.146 -15.065,2.087 -15.54,1.473C-16.071,0.785 -15.919,0.012 -15.207,-0.587C-13.033,-2.412 -11.25,-4.55 -9.947,-7.091C-8.483,-9.943 -7.742,-12.969 -7.686,-16.155C-7.658,-17.726 -7.854,-19.285 -8.164,-20.834C-9.112,-25.573 -8.798,-30.244 -7.335,-34.849C-6.487,-37.52 -5.184,-40.102 -3.566,-42.424C-2.741,-43.609 -1.833,-44.735 -0.865,-45.806C-0.582,-46.119 -0.293,-46.427 0,-46.731" style="fill:rgb(219,166,7);fill-rule:nonzero;"/>
        </g>
        <g transform="matrix(1,0,0,1,43.8808,78.0125)">
            <path d="M0,-23.794C-0.057,-14.885 -1.95,-7.154 -5.738,0.102C-7.582,3.636 -9.831,6.894 -12.453,9.895C-12.829,10.326 -13.249,10.669 -13.877,10.537C-15.004,10.3 -15.379,9.131 -14.602,8.206C-13.21,6.553 -11.863,4.868 -10.671,3.061C-8.551,-0.151 -6.829,-3.562 -5.53,-7.186C-3.974,-11.524 -3.11,-15.996 -2.834,-20.596C-2.592,-24.624 -2.941,-28.6 -3.702,-32.549C-3.865,-33.398 -3.472,-34.1 -2.701,-34.28C-1.919,-34.463 -1.214,-34.043 -1.036,-33.188C-0.67,-31.439 -0.377,-29.674 -0.234,-27.892C-0.107,-26.287 -0.049,-24.677 0,-23.794" style="fill:rgb(219,166,7);fill-rule:nonzero;"/>
        </g>
        <g transform="matrix(1,0,0,1,86.499,10.8428)">
            <path d="M0,33.366C0,33.897 0.006,34.428 -0.002,34.959C-0.015,35.842 -0.538,36.419 -1.341,36.446C-2.081,36.472 -2.726,35.84 -2.757,35.005C-2.788,34.199 -2.754,33.392 -2.78,32.587C-2.882,29.413 -3.404,26.308 -4.224,23.239C-5.003,20.319 -6.063,17.518 -7.449,14.84C-9.421,11.03 -11.881,7.578 -14.938,4.544C-16.643,2.853 -18.412,1.258 -20.373,-0.125C-20.518,-0.227 -20.654,-0.341 -20.788,-0.456C-21.373,-0.959 -21.486,-1.729 -21.062,-2.301C-20.588,-2.943 -19.88,-3.106 -19.194,-2.65C-18.41,-2.128 -17.652,-1.564 -16.917,-0.976C-12.416,2.625 -8.729,6.934 -5.87,11.934C-4.257,14.755 -2.992,17.738 -2.03,20.846C-0.963,24.296 -0.315,27.824 -0.052,31.421C-0.005,32.066 -0.045,32.718 -0.045,33.366L0,33.366Z" style="fill:rgb(219,166,7);fill-rule:nonzero;"/>
        </g>
        <g transform="matrix(1,0,0,1,42.2612,56.2269)">
            <path d="M0,-23.502C3.716,-23.337 7.195,-21.469 9.649,-17.747C10.675,-16.19 11.161,-14.448 11.48,-12.634C12.107,-9.067 12.477,-5.479 12.495,-1.856C12.498,-1.228 12.366,-0.688 11.74,-0.382C10.947,0.005 10.055,-0.376 9.824,-1.23C9.758,-1.473 9.739,-1.735 9.739,-1.987C9.747,-5.834 9.292,-9.63 8.509,-13.389C7.659,-17.474 3.82,-20.63 -0.356,-20.719C-4.145,-20.8 -7.024,-19.204 -9.019,-16.012C-9.539,-15.179 -9.896,-14.258 -10.093,-13.283C-10.219,-12.659 -10.546,-12.189 -11.233,-12.097C-12.281,-11.957 -13.02,-12.755 -12.783,-13.814C-12.083,-16.941 -10.428,-19.451 -7.801,-21.283C-5.681,-22.76 -3.312,-23.507 0,-23.502" style="fill:rgb(219,166,7);fill-rule:nonzero;"/>
        </g>
        <g transform="matrix(1,0,0,1,32.9404,78.2594)">
            <path d="M0,-23.953C0.02,-18.494 -0.936,-13.66 -2.75,-9.004C-4.205,-5.266 -6.229,-1.844 -8.729,1.3C-9.856,2.717 -11.089,4.029 -12.395,5.276C-13.219,6.065 -14.281,5.941 -14.713,5.031C-14.997,4.434 -14.844,3.793 -14.293,3.273C-12.13,1.226 -10.224,-1.034 -8.621,-3.548C-5.626,-8.243 -3.741,-13.346 -3.042,-18.871C-2.647,-22.001 -2.669,-25.14 -3.042,-28.274C-3.154,-29.212 -2.691,-29.863 -1.884,-29.939C-1.047,-30.018 -0.485,-29.514 -0.349,-28.615C-0.092,-26.921 0.028,-25.22 0,-23.953" style="fill:rgb(219,166,7);fill-rule:nonzero;"/>
        </g>
        <g transform="matrix(1,0,0,1,58.1337,16.431)">
            <path d="M0,8.683C-0.509,8.398 -0.947,7.99 -1.425,7.646C-5.306,4.85 -9.62,3.222 -14.393,2.794C-18.921,2.388 -23.229,3.202 -27.376,5.011C-28.34,5.431 -28.816,5.163 -29.245,4.403C-29.628,3.724 -29.263,2.807 -28.504,2.483C-25.337,1.13 -22.059,0.259 -18.605,0.009C-13.813,-0.337 -9.258,0.547 -4.881,2.457C-3.5,3.06 -2.215,3.848 -0.919,4.617C-0.086,5.111 0.624,5.748 1.378,6.331C2.361,7.091 2.208,8.228 1.106,8.785C0.641,9.02 0.319,8.862 0,8.683" style="fill:rgb(219,166,7);fill-rule:nonzero;"/>
        </g>
        <g transform="matrix(1,0,0,1,52.9872,90.3074)">
            <path d="M0,-30.083C0.884,-30.086 1.487,-29.389 1.377,-28.484C0.954,-25.007 0.25,-21.588 -0.732,-18.223C-1.837,-14.439 -3.327,-10.815 -5.122,-7.311C-6.226,-5.157 -7.483,-3.098 -8.825,-1.089C-9.474,-0.118 -10.364,0.003 -11.087,-0.741C-11.552,-1.219 -11.623,-1.841 -11.234,-2.407C-9.463,-4.989 -7.907,-7.695 -6.579,-10.529C-5.545,-12.736 -4.633,-14.994 -3.881,-17.315C-2.8,-20.649 -1.995,-24.046 -1.526,-27.52C-1.464,-27.987 -1.422,-28.459 -1.332,-28.92C-1.182,-29.687 -0.713,-30.08 0,-30.083" style="fill:rgb(219,166,7);fill-rule:nonzero;"/>
        </g>
        <g transform="matrix(1,0,0,1,76.6005,71.2836)">
            <path d="M0,-16.985C-0.049,-9.542 -0.868,-2.758 -2.588,3.911C-2.676,4.253 -2.741,4.604 -2.861,4.934C-3.117,5.635 -3.771,5.989 -4.45,5.825C-5.173,5.65 -5.601,5.038 -5.479,4.27C-5.397,3.747 -5.247,3.236 -5.119,2.721C-4.033,-1.651 -3.325,-6.08 -2.998,-10.576C-2.794,-13.381 -2.774,-16.185 -2.804,-18.993C-2.813,-19.817 -2.895,-20.639 -2.908,-21.464C-2.923,-22.368 -2.403,-22.941 -1.604,-22.958C-0.811,-22.974 -0.179,-22.366 -0.156,-21.488C-0.113,-19.8 0.077,-18.117 0,-16.985" style="fill:rgb(219,166,7);fill-rule:nonzero;"/>
        </g>
        <g transform="matrix(1,0,0,1,11.1098,58.9763)">
            <path d="M0,-4.204C-0.021,-0.421 -1.104,3.02 -3.305,6.11C-4.126,7.264 -5.067,8.302 -6.137,9.226C-6.82,9.817 -7.634,9.824 -8.138,9.256C-8.729,8.589 -8.628,7.775 -7.922,7.144C-4.669,4.235 -2.923,0.614 -2.75,-3.764C-2.687,-5.392 -2.99,-6.966 -3.29,-8.549C-3.534,-9.842 -3.617,-11.157 -3.693,-12.47C-3.743,-13.338 -3.119,-14.006 -2.334,-14.017C-1.585,-14.028 -0.983,-13.401 -0.951,-12.558C-0.881,-10.727 -0.558,-8.933 -0.232,-7.137C-0.058,-6.17 0.027,-5.191 0,-4.204" style="fill:rgb(219,166,7);fill-rule:nonzero;"/>
        </g>
        <g transform="matrix(1,0,0,1,35.4047,85.2588)">
            <path d="M0,-14.677C0.014,-14.353 -0.098,-14.058 -0.216,-13.766C-2.136,-9.046 -4.779,-4.766 -8.08,-0.89C-8.576,-0.308 -9.1,0.252 -9.631,0.802C-10.067,1.256 -10.599,1.473 -11.235,1.298C-11.768,1.15 -12.043,0.76 -12.163,0.249C-12.31,-0.379 -11.928,-0.794 -11.54,-1.195C-10.431,-2.339 -9.403,-3.554 -8.439,-4.821C-6.034,-7.979 -4.112,-11.413 -2.642,-15.102C-2.364,-15.797 -1.739,-16.15 -1.11,-16.014C-0.441,-15.87 -0.008,-15.348 0,-14.677" style="fill:rgb(219,166,7);fill-rule:nonzero;"/>
        </g>
        <g transform="matrix(1,0,0,1,16.0575,73.3749)">
            <path d="M0,-6.128C0.538,-7.102 1.02,-8.111 1.447,-9.151C1.709,-9.789 2.181,-10.165 2.772,-10.139C3.394,-10.112 3.822,-9.794 4.097,-9.221C4.199,-9.008 4.15,-8.843 4.111,-8.661C3.883,-7.612 3.36,-6.683 2.898,-5.732C2.418,-4.744 1.804,-3.827 1.279,-2.865C0.878,-2.131 0.306,-1.552 -0.181,-0.899C-0.695,-0.207 -1.27,0.439 -1.851,1.08C-2.618,1.924 -3.483,2.656 -4.329,3.411C-5.016,4.023 -5.956,4.037 -6.458,3.474C-7.007,2.857 -6.849,1.924 -6.103,1.306C-3.586,-0.781 -1.559,-3.305 0,-6.128" style="fill:rgb(219,166,7);fill-rule:nonzero;"/>
        </g>
        <g transform="matrix(1,0,0,1,61.8954,87.2383)">
            <path d="M0,-15.553C0.902,-15.558 1.509,-14.75 1.288,-13.798C0.946,-12.324 0.489,-10.881 0.002,-9.449C-0.954,-6.639 -2.054,-3.887 -3.353,-1.215C-3.499,-0.914 -3.634,-0.607 -3.906,-0.392C-4.391,-0.009 -5.045,0.005 -5.551,-0.358C-6.046,-0.713 -6.255,-1.384 -5.997,-1.986C-5.392,-3.393 -4.721,-4.773 -4.146,-6.193C-3.492,-7.808 -2.868,-9.437 -2.329,-11.095C-2.047,-11.965 -1.788,-12.843 -1.561,-13.73C-1.32,-14.671 -1.207,-15.547 0,-15.553" style="fill:rgb(219,166,7);fill-rule:nonzero;"/>
        </g>
        <g transform="matrix(1,0,0,1,22.7543,19.92)">
            <path d="M0,0.112C0.047,0.074 0.094,0.037 0.141,0C0.094,0.037 0.047,0.074 0,0.112" style="fill:rgb(219,166,7);fill-rule:nonzero;"/>
        </g>
        <g transform="matrix(1,0,0,1,22.6391,20.0341)">
            <path d="M0,0.139C0.038,0.093 0.076,0.046 0.113,0C0.076,0.046 0.038,0.093 0,0.139" style="fill:rgb(219,166,7);fill-rule:nonzero;"/>
        </g>
    </g>
</svg>
