<?xml version="1.0" encoding="UTF-8" standalone="no"?>
<!DOCTYPE svg PUBLIC "-//W3C//DTD SVG 1.1//EN" "http://www.w3.org/Graphics/SVG/1.1/DTD/svg11.dtd">
<svg width="100%" height="100%" viewBox="0 0 512 512" version="1.1" xmlns="http://www.w3.org/2000/svg" xmlns:xlink="http://www.w3.org/1999/xlink" xml:space="preserve" xmlns:serif="http://www.serif.com/" style="fill-rule:evenodd;clip-rule:evenodd;stroke-linejoin:round;stroke-miterlimit:2;">
    <g id="Circle" transform="matrix(1.20578,0,0,1.20578,-51.4489,-53.5523)">
        <path d="M409.058,111.819C444.28,149.614 465.843,200.309 465.843,256C465.843,372.778 371.034,467.587 254.256,467.587C198.564,467.587 147.869,446.024 110.075,410.803L125.044,395.834C159.005,427.233 204.406,446.428 254.256,446.428C359.356,446.428 444.684,361.1 444.684,256C444.684,206.151 425.488,160.75 394.089,126.788L409.058,111.819ZM97.223,397.751C63.319,360.216 42.668,310.5 42.668,256C42.668,139.222 137.477,44.413 254.256,44.413C308.756,44.413 358.471,65.063 396.006,98.968L381.026,113.948C347.34,83.863 302.917,65.572 254.256,65.572C149.155,65.572 63.827,150.9 63.827,256C63.827,304.661 82.119,349.084 112.203,382.77L97.223,397.751Z" style="fill:rgb(13,84,115);"/>
    </g>
    <g transform="matrix(0.787396,0,0,0.787396,54.9809,52.3622)">
        <path d="M291.538,151.87L315.757,81.946L303.45,64.66L200.476,64.66L188.17,81.946L212.668,152.674C212.668,152.674 162.633,361.432 162.633,361.432L251.594,452.584L347.959,361.528L345.815,353.938C345.815,353.938 299.529,190.19 292.244,155.666C291.898,154.027 291.569,152.06 291.538,151.87ZM267.643,165.032C275.942,201.31 309.74,321.9 318.609,353.425C318.609,353.425 252.333,416.049 252.333,416.049C252.333,416.049 191.313,353.526 191.313,353.526L236.491,165.032L267.643,165.032ZM235.492,138.984L218.77,90.707C218.77,90.707 285.157,90.707 285.157,90.707L268.435,138.984L235.492,138.984Z" style="fill:rgb(13,84,115);"/>
    </g>
</svg>
