<?xml version="1.0" encoding="UTF-8" standalone="no"?>
<!DOCTYPE svg PUBLIC "-//W3C//DTD SVG 1.1//EN" "http://www.w3.org/Graphics/SVG/1.1/DTD/svg11.dtd">
<svg width="100%" height="100%" viewBox="0 0 512 512" version="1.1" xmlns="http://www.w3.org/2000/svg" xmlns:xlink="http://www.w3.org/1999/xlink" xml:space="preserve" xmlns:serif="http://www.serif.com/" style="fill-rule:evenodd;clip-rule:evenodd;stroke-linejoin:round;stroke-miterlimit:2;">
    <g id="Circle" transform="matrix(1.20578,0,0,1.20578,-51.4489,-53.5523)">
        <path d="M409.058,111.819C444.28,149.614 465.843,200.309 465.843,256C465.843,372.778 371.034,467.587 254.256,467.587C198.564,467.587 147.869,446.024 110.075,410.803L125.044,395.834C159.005,427.233 204.406,446.428 254.256,446.428C359.356,446.428 444.684,361.1 444.684,256C444.684,206.151 425.488,160.75 394.089,126.788L409.058,111.819ZM97.223,397.751C63.319,360.216 42.668,310.5 42.668,256C42.668,139.222 137.477,44.413 254.256,44.413C308.756,44.413 358.471,65.063 396.006,98.968L381.026,113.948C347.34,83.863 302.917,65.572 254.256,65.572C149.155,65.572 63.827,150.9 63.827,256C63.827,304.661 82.119,349.084 112.203,382.77L97.223,397.751Z" style="fill:rgb(245,251,255);"/>
    </g>
    <path id="Diamond" d="M257.231,363.518L115.522,260.561L169.65,146.737L344.812,146.737L398.94,260.561L257.231,363.518ZM155.834,265.128L247.231,331.532L247.231,265.128L155.834,265.128ZM267.231,265.128L267.231,331.532L358.628,265.128L267.231,265.128ZM145.008,245.128L236.283,245.128L178.805,174.057L145.008,245.128ZM278.18,245.128L369.455,245.128L335.658,174.057L278.18,245.128ZM257.231,239.225L315.856,166.737L198.607,166.737L257.231,239.225Z" style="fill:rgb(245,251,255);"/>
</svg>
